<svg width="1526" height="1043" viewBox="0 0 1526 1043" fill="none" xmlns="http://www.w3.org/2000/svg">
<rect width="1526" height="1043" fill="url(#paint0_linear)" fill-opacity="0.85"/>
<path d="M1526 898.156H1344.31V899.664H1526V898.156Z" fill="#3F3D56"/>
<path d="M1384.83 884.61L1390.1 912.502L1401.41 915.517L1398.4 882.349L1384.83 884.61Z" fill="#A0616A"/>
<path d="M1448.15 884.61L1453.43 912.502L1464.74 915.517L1461.72 882.349L1448.15 884.61Z" fill="#A0616A"/>
<path d="M1396.89 907.226C1396.89 907.226 1384.83 906.472 1384.83 910.241C1384.83 914.01 1378.79 926.825 1378.79 926.825C1378.79 926.825 1374.27 941.902 1386.33 940.394C1398.4 938.887 1405.94 925.318 1405.94 925.318L1402.92 910.995L1396.89 907.226Z" fill="#2F2E41"/>
<path d="M1457.31 908.615C1457.31 908.615 1449.26 903.443 1449.83 906.891C1450.41 910.339 1450.98 919.534 1455.01 920.109C1459.03 920.684 1471.1 924.132 1471.67 925.281C1472.25 926.43 1486.04 931.028 1486.04 923.557C1486.04 916.086 1477.42 910.34 1477.42 910.34L1467.65 902.869C1467.65 902.869 1461.33 902.294 1460.18 906.317C1459.03 910.339 1457.31 908.615 1457.31 908.615Z" fill="#2F2E41"/>
<path d="M1380.87 725.905C1380.87 725.905 1368.06 707.06 1363.53 713.09C1359.01 719.121 1374.84 730.428 1374.84 730.428L1380.87 725.905Z" fill="#A0616A"/>
<path d="M1385.4 743.997C1384.64 743.243 1371.07 730.428 1371.07 730.428L1380.87 723.644L1392.18 734.951L1385.4 743.997Z" fill="#575A89"/>
<path d="M1387.28 685.575C1387.28 685.575 1377.48 686.329 1378.23 694.621C1378.99 702.913 1385.4 730.428 1385.4 730.428L1389.17 737.967C1389.17 737.967 1403.11 694.621 1387.28 685.575Z" fill="#575A89"/>
<path d="M1388.03 659.191L1390.75 668.237H1424.75L1425.73 658.437L1428.67 668.237H1433.04L1434.02 658.437L1436.96 668.237H1441.56L1437.24 657.822C1435.23 652.842 1433.7 647.682 1432.68 642.411C1431.33 635.867 1427.77 629.987 1422.58 625.766C1417.4 621.544 1410.93 619.239 1404.24 619.238V619.238C1403.84 619.238 1403.44 619.246 1403.05 619.262C1383.99 620.035 1371.78 639.99 1379.1 657.604L1383.51 668.237H1387.13L1388.03 659.191Z" fill="#2F2E41"/>
<path d="M1387.66 737.967C1387.66 737.967 1364.29 757.566 1371.07 783.95C1377.86 810.335 1380.12 893.256 1380.12 893.256L1403.49 890.995V786.966L1435.91 848.78L1441.19 893.256L1467.57 888.733L1455.51 834.457L1432.31 765.272L1429.88 745.312L1387.66 737.967Z" fill="#2F2E41"/>
<path d="M1403.87 659.945C1412.61 659.945 1419.7 652.857 1419.7 644.115C1419.7 635.372 1412.61 628.284 1403.87 628.284C1395.12 628.284 1388.03 635.372 1388.03 644.115C1388.03 652.857 1395.12 659.945 1403.87 659.945Z" fill="#A0616A"/>
<path d="M1394.44 655.045C1394.44 655.045 1401.23 679.922 1397.46 682.937C1393.69 685.952 1423.85 673.137 1423.85 673.137C1423.85 673.137 1411.03 658.814 1412.54 652.784L1394.44 655.045Z" fill="#A0616A"/>
<path d="M1422.34 667.86C1422.34 667.86 1410.27 678.242 1398.58 679.082C1398.58 679.082 1383.13 687.46 1383.89 688.214C1384.64 688.968 1386.9 699.521 1386.9 699.521C1386.9 699.521 1390.67 705.342 1390.67 717.613C1390.67 719.121 1385.4 740.228 1385.4 740.228L1429.88 746.259C1429.88 746.259 1441.94 707.06 1442.69 693.491C1443.45 679.922 1447.97 665.599 1441.19 664.845C1434.4 664.091 1422.34 667.86 1422.34 667.86Z" fill="#575A89"/>
<path d="M1439.68 667.86C1439.68 667.86 1444.95 663.337 1447.97 673.891C1450.99 684.445 1463.05 717.613 1460.03 724.398C1457.02 731.182 1438.92 761.335 1438.92 761.335L1429.88 755.305L1447.97 721.382L1437.42 697.26L1439.68 667.86Z" fill="#575A89"/>
<path d="M1433.65 754.551C1433.65 754.551 1410.27 768.874 1417.81 771.889C1425.35 774.904 1438.17 759.074 1438.17 759.074L1433.65 754.551Z" fill="#A0616A"/>
<path d="M1386.53 626.023V641.853H1392.56L1394.82 635.069L1395.39 641.853H1412.16L1414.42 635.069L1414.99 641.853H1421.96V626.023H1386.53Z" fill="#2F2E41"/>
<path opacity="0.2" d="M1386.53 700.652C1386.53 700.652 1385.02 715.729 1387.28 718.744C1389.54 721.759 1386.53 700.652 1386.53 700.652Z" fill="black"/>
<path d="M1256.1 963.739H936.442V965.247H1256.1V963.739Z" fill="#3F3D56"/>
<path d="M1236.66 849.24L1143.91 941.976C1129.73 956.152 1110.5 964.116 1090.45 964.116C1070.4 964.116 1051.17 956.152 1036.99 941.976C1035.74 940.725 1034.53 939.436 1033.39 938.109C1031.5 935.953 1029.74 933.688 1028.12 931.325C1022.17 922.721 1018.1 912.96 1016.18 902.679C1015.75 900.44 1015.42 898.179 1015.2 895.894C1014.97 893.46 1014.85 891.002 1014.85 888.522C1014.84 881.586 1015.79 874.682 1017.65 868.003C1018.29 865.704 1019.05 863.442 1019.91 861.218C1023.72 851.405 1029.53 842.497 1036.99 835.068L1077.45 794.61C1079.57 792.489 1082.45 791.298 1085.45 791.298C1088.45 791.298 1091.32 792.489 1093.44 794.61C1095.56 796.73 1096.76 799.605 1096.76 802.604C1096.76 805.602 1095.56 808.478 1093.44 810.598L1052.98 851.057C1049.92 854.109 1047.25 857.521 1045.01 861.218C1040.05 869.458 1037.44 878.902 1037.47 888.522C1037.47 890.988 1037.64 893.451 1037.97 895.894C1038.29 898.185 1038.75 900.451 1039.37 902.679C1041.84 911.609 1046.61 919.735 1053.21 926.246C1059.8 932.757 1067.98 937.425 1076.95 939.784C1085.91 942.143 1095.33 942.11 1104.27 939.689C1113.22 937.268 1121.37 932.544 1127.92 925.987L1151.23 902.679L1192.7 861.218L1220.67 833.251C1229.46 824.433 1234.87 812.804 1235.96 800.398C1237.04 787.993 1233.73 775.601 1226.6 765.391C1224.92 762.93 1224.28 759.906 1224.82 756.976C1225.36 754.045 1227.03 751.446 1229.47 749.741C1231.92 748.036 1234.93 747.365 1237.87 747.871C1240.81 748.378 1243.42 750.023 1245.15 752.448C1255.31 767.016 1260.03 784.693 1258.48 802.386C1256.92 820.079 1249.2 836.664 1236.66 849.24V849.24Z" fill="#3F3D56"/>
<path d="M1382 672.594C1382 673.152 1382 673.71 1381.98 674.268C1381.79 684.136 1379.65 693.869 1375.7 702.913C1374.69 705.232 1373.56 707.497 1372.31 709.698C1368.92 715.688 1364.73 721.189 1359.86 726.049L1319.4 766.507C1317.28 768.622 1314.4 769.809 1311.41 769.807C1308.41 769.805 1305.54 768.614 1303.42 766.495C1301.3 764.377 1300.11 761.505 1300.11 758.509C1300.11 755.513 1301.29 752.639 1303.41 750.518L1343.87 710.06C1343.99 709.939 1344.11 709.819 1344.22 709.698C1353.56 700.222 1358.97 687.565 1359.36 674.268C1359.38 673.71 1359.39 673.152 1359.39 672.594C1359.39 670.876 1359.31 669.172 1359.14 667.483C1357.96 655.253 1352.56 643.814 1343.87 635.129C1343.06 634.322 1342.24 633.546 1341.39 632.807C1331.72 624.305 1319.28 619.615 1306.4 619.615C1293.52 619.615 1281.08 624.305 1271.41 632.807C1270.56 633.546 1269.74 634.322 1268.93 635.129L1176.19 727.865C1166.26 737.81 1160.69 751.284 1160.69 765.331C1160.69 779.378 1166.26 792.851 1176.19 802.796C1178.31 804.916 1179.5 807.792 1179.5 810.791C1179.5 813.789 1178.31 816.665 1176.19 818.785C1174.07 820.905 1171.19 822.096 1168.19 822.096C1165.19 822.096 1162.32 820.905 1160.2 818.785C1146.04 804.597 1138.09 785.373 1138.09 765.331C1138.09 745.289 1146.04 726.065 1160.2 711.877L1252.94 619.14C1261.01 611.089 1270.79 604.964 1281.56 601.223C1292.33 597.482 1303.8 596.222 1315.13 597.536C1326.45 598.85 1337.33 602.705 1346.95 608.812C1356.58 614.919 1364.7 623.122 1370.71 632.807C1372.08 635 1373.33 637.265 1374.46 639.592C1378.7 648.324 1381.2 657.796 1381.83 667.483C1381.94 669.179 1382 670.883 1382 672.594Z" fill="#3F3D56"/>
<path d="M897.477 994.018C894.023 1006.78 882.193 1014.69 882.193 1014.69C882.193 1014.69 875.963 1001.9 879.417 989.133C882.87 976.367 894.7 968.461 894.7 968.461C894.7 968.461 900.93 981.252 897.477 994.018Z" fill="#6C63FF"/>
<path d="M866.057 994.018C869.511 1006.78 881.341 1014.69 881.341 1014.69C881.341 1014.69 887.571 1001.9 884.117 989.133C880.664 976.367 868.834 968.461 868.834 968.461C868.834 968.461 862.604 981.252 866.057 994.018Z" fill="#6C63FF"/>
<path d="M871.132 991.274C880.609 1000.5 881.767 1014.68 881.767 1014.68C881.767 1014.68 867.559 1013.9 858.082 1004.68C848.605 995.454 847.447 981.274 847.447 981.274C847.447 981.274 861.655 982.049 871.132 991.274Z" fill="#3F3D56"/>
<path d="M892.402 991.274C882.925 1000.5 881.767 1014.68 881.767 1014.68C881.767 1014.68 895.975 1013.9 905.452 1004.68C914.929 995.454 916.087 981.274 916.087 981.274C916.087 981.274 901.879 982.049 892.402 991.274Z" fill="#3F3D56"/>
<path d="M1317.92 671.252C1317.92 672.265 1317.82 673.275 1317.62 674.268C1316.92 677.673 1315.07 680.733 1312.38 682.931C1309.69 685.129 1306.32 686.329 1302.84 686.329C1299.37 686.329 1296 685.129 1293.31 682.931C1290.61 680.733 1288.76 677.673 1288.07 674.268C1287.61 672.022 1287.67 669.703 1288.24 667.483C1289.15 663.927 1291.34 660.826 1294.37 658.764C1297.41 656.701 1301.1 655.818 1304.74 656.281C1308.39 656.744 1311.73 658.52 1314.16 661.277C1316.59 664.033 1317.92 667.58 1317.92 671.252V671.252Z" fill="#3F3D56"/>
<path d="M1095.52 899.664C1095.52 900.676 1095.42 901.686 1095.22 902.679C1094.52 906.084 1092.67 909.144 1089.98 911.342C1087.28 913.54 1083.91 914.74 1080.44 914.74C1076.96 914.74 1073.59 913.54 1070.9 911.342C1068.21 909.144 1066.36 906.084 1065.66 902.679C1065.21 900.433 1065.27 898.114 1065.84 895.894C1066.75 892.338 1068.93 889.237 1071.97 887.175C1075.01 885.112 1078.7 884.23 1082.34 884.692C1085.98 885.155 1089.33 886.931 1091.76 889.688C1094.18 892.444 1095.52 895.991 1095.52 899.664V899.664Z" fill="#3F3D56"/>
<path d="M977.153 1013.49H803V1015H977.153V1013.49Z" fill="#3F3D56"/>
<path d="M1239.27 632.807H1271.41C1270.56 633.546 1269.74 634.322 1268.93 635.129L1264.47 639.591H1232.49L1239.27 632.807Z" fill="#6C63FF"/>
<path d="M1374.46 639.591H1347.86C1346.61 638.03 1345.28 636.54 1343.87 635.129C1343.06 634.322 1342.24 633.546 1341.39 632.807H1370.71C1372.08 635 1373.33 637.265 1374.46 639.591V639.591Z" fill="#6C63FF"/>
<path d="M1204.59 667.483H1236.57L1229.79 674.268H1197.81L1204.59 667.483Z" fill="#6C63FF"/>
<path d="M1317.45 667.483C1318.01 669.703 1318.07 672.022 1317.62 674.268H1288.07C1287.61 672.022 1287.67 669.703 1288.24 667.483H1317.45Z" fill="#6C63FF"/>
<path d="M1382 672.594C1382 673.152 1382 673.71 1381.98 674.268H1359.36C1359.38 673.71 1359.39 673.152 1359.39 672.594C1359.39 670.876 1359.31 669.172 1359.14 667.483H1381.83C1381.94 669.179 1382 670.883 1382 672.594Z" fill="#6C63FF"/>
<path d="M1169.16 702.913H1201.14L1194.35 709.698H1162.37L1169.16 702.913Z" fill="#6C63FF"/>
<path d="M1375.7 702.913C1374.69 705.232 1373.56 707.497 1372.31 709.698H1344.22C1346.29 707.599 1348.18 705.33 1349.87 702.913H1375.7Z" fill="#6C63FF"/>
<path d="M1045.01 861.218C1043.7 863.394 1042.55 865.661 1041.57 868.003H1017.65C1018.29 865.704 1019.05 863.442 1019.91 861.218H1045.01Z" fill="#6C63FF"/>
<path d="M1224.68 861.218L1217.89 868.003H1185.91L1192.7 861.218H1224.68Z" fill="#6C63FF"/>
<path d="M1039.37 902.679H1016.18C1015.75 900.44 1015.42 898.179 1015.2 895.895H1037.97C1038.29 898.185 1038.75 900.451 1039.37 902.679V902.679Z" fill="#6C63FF"/>
<path d="M1095.52 899.664C1095.52 900.676 1095.42 901.686 1095.22 902.679H1065.66C1065.21 900.433 1065.27 898.114 1065.84 895.895H1095.04C1095.36 897.126 1095.52 898.392 1095.52 899.664Z" fill="#6C63FF"/>
<path d="M1190 895.895L1183.21 902.679H1151.23L1158.02 895.895H1190Z" fill="#6C63FF"/>
<path d="M1071.72 938.109H1033.39C1031.5 935.953 1029.74 933.688 1028.12 931.325H1059.21C1063.05 934.144 1067.26 936.427 1071.72 938.109V938.109Z" fill="#6C63FF"/>
<path d="M1154.56 931.325L1147.78 938.109H1109.18C1113.64 936.427 1117.85 934.144 1121.69 931.325H1154.56Z" fill="#6C63FF"/>
<path d="M1040.93 724.951C1035.17 715.213 1023.76 714.759 1023.76 714.759C1023.76 714.759 1012.65 713.338 1005.52 728.17C998.878 741.994 989.708 755.342 1004.05 758.578L1006.64 750.518L1008.24 759.178C1010.28 759.325 1012.33 759.36 1014.37 759.283C1029.73 758.787 1044.35 759.428 1043.88 753.918C1043.25 746.594 1046.48 734.321 1040.93 724.951Z" fill="#2F2E41"/>
<path d="M999.394 939.994L1000.15 959.593H1013.72L1012.96 938.486L999.394 939.994Z" fill="#FBBEBE"/>
<path d="M1036.34 801.289L1034.96 805.849L1017.19 864.897L1015.23 871.395L1016.73 940.748L997.886 943.009C997.886 943.009 997.335 935.727 996.529 924.977C994.908 903.689 992.254 868.779 990.716 849.783C990.151 842.757 989.744 837.91 989.593 836.719C988.839 830.688 998.64 800.535 998.64 800.535L1018.24 799.027L1036.34 801.289Z" fill="#2F2E41"/>
<path d="M1003.92 957.332C1003.92 957.332 998.64 951.301 997.886 955.824C997.132 960.347 988.085 977.685 988.085 977.685C988.085 977.685 961.698 995.023 984.315 996.531C984.315 996.531 995.624 995.023 999.394 988.993C999.394 988.993 1005.42 985.224 1006.93 985.224C1008.44 985.224 1017.49 982.208 1015.98 977.685C1014.47 973.162 1015.23 956.578 1015.23 956.578L1003.92 957.332Z" fill="#2F2E41"/>
<path d="M1003.16 921.902L1009.95 934.717L1020.5 929.44L1013.72 914.363L1003.16 921.902Z" fill="#FBBEBE"/>
<path opacity="0.2" d="M997.886 884.964C997.886 884.964 992.262 872.676 990.724 853.68C1001.64 841.483 1014.85 828.05 1014.85 828.05L1030.68 827.296L1035.58 826.919C1036.73 838.377 1027.03 853.137 1017.19 864.897C1011.2 872.004 1004.76 878.708 997.886 884.964V884.964Z" fill="black"/>
<path d="M1017.49 827.673C1017.49 827.673 969.237 869.887 976.022 887.225C982.808 904.564 1001.66 925.671 1001.66 925.671L1016.22 916.981L1002.41 884.964C1002.41 884.964 1008.2 879.831 1015.24 872.226C1026.71 859.85 1041.51 840.926 1040.1 826.919L1039.35 801.289L1026.53 802.796L1017.49 827.673Z" fill="#2F2E41"/>
<path d="M1012.96 931.702C1012.96 931.702 1007.69 931.702 1008.44 936.225C1009.19 940.748 1010.7 948.286 1010.7 948.286C1010.7 948.286 1004.67 983.716 1019 975.424C1033.32 967.132 1029.55 945.271 1029.55 945.271C1029.55 945.271 1034.83 931.702 1028.04 930.194C1021.26 928.686 1019 927.179 1018.24 927.932C1017.49 928.686 1012.96 931.702 1012.96 931.702Z" fill="#2F2E41"/>
<path d="M1023.52 747.013C1031.01 747.013 1037.09 740.938 1037.09 733.444C1037.09 725.95 1031.01 719.875 1023.52 719.875C1016.02 719.875 1009.95 725.95 1009.95 733.444C1009.95 740.938 1016.02 747.013 1023.52 747.013Z" fill="#FBBEBE"/>
<path d="M1018.24 738.72C1018.24 738.72 1024.27 754.551 1022.01 755.305C1019.75 756.059 1015.23 759.828 1015.23 759.828L1022.76 766.612L1042.37 756.059C1042.37 756.059 1033.32 743.997 1034.07 738.72H1018.24Z" fill="#FBBEBE"/>
<path d="M1042.37 753.043C1042.37 753.043 1026.59 760.819 1020.91 755.8C1020.91 755.8 1011.46 755.305 1009.95 760.582C1008.44 765.858 1011.46 770.381 1007.69 771.889C1003.92 773.397 1001.28 777.543 1003.54 784.327C1005.8 791.112 1005.42 792.242 1002.41 794.504C999.394 796.765 996.378 801.288 996.378 802.796C996.378 804.304 993.362 804.304 994.87 805.811C996.378 807.319 993.362 805.811 996.378 807.319C999.394 808.827 1007.69 795.258 1013.72 802.042C1019.75 808.827 1038.6 820.134 1040.1 813.35C1041.61 806.565 1046.14 789.981 1046.14 789.981C1046.14 789.981 1061.97 760.582 1057.44 757.566C1052.92 754.551 1042.37 753.043 1042.37 753.043Z" fill="#CFCCE0"/>
<path d="M1040.1 805.812C1040.1 805.812 1031.81 804.304 1029.55 809.581C1027.29 814.858 1014.47 826.919 1022.76 827.673C1031.06 828.427 1037.09 814.858 1037.09 814.858L1045.38 813.35L1040.1 805.812Z" fill="#FBBEBE"/>
<path d="M1048.4 757.566L1058.26 758.115C1058.26 758.115 1062.72 762.843 1063.48 767.366C1064.23 771.889 1078.55 805.812 1069.51 809.581C1060.46 813.35 1040.86 815.611 1040.86 815.611L1038.6 805.058L1051.41 800.535L1042.37 781.689L1048.4 757.566Z" fill="#CFCCE0"/>
<path opacity="0.2" d="M1003.54 885.341L1015.94 916.341L1001.28 885.341L1014.09 871.772L1003.54 885.341Z" fill="black"/>
<path opacity="0.2" d="M996.109 919.464L1001.28 926.048H997.509L996.109 919.464Z" fill="black"/>
<path d="M1025.16 723.053C1029.71 723.053 1033.4 719.362 1033.4 714.808C1033.4 710.255 1029.71 706.564 1025.16 706.564C1020.6 706.564 1016.91 710.255 1016.91 714.808C1016.91 719.362 1020.6 723.053 1025.16 723.053Z" fill="#2F2E41"/>
<path d="M1016.04 712.639C1016.04 710.603 1016.8 708.639 1018.16 707.125C1019.52 705.611 1021.4 704.655 1023.42 704.441C1023.13 704.41 1022.84 704.395 1022.55 704.394C1021.47 704.393 1020.4 704.606 1019.4 705.02C1018.39 705.434 1017.49 706.041 1016.72 706.806C1015.95 707.572 1015.34 708.481 1014.93 709.482C1014.51 710.483 1014.3 711.556 1014.3 712.639C1014.3 713.722 1014.51 714.795 1014.93 715.796C1015.34 716.797 1015.95 717.706 1016.72 718.471C1017.49 719.237 1018.39 719.844 1019.4 720.258C1020.4 720.672 1021.47 720.884 1022.55 720.883C1022.84 720.883 1023.13 720.868 1023.42 720.837C1021.4 720.623 1019.52 719.667 1018.16 718.153C1016.8 716.639 1016.04 714.675 1016.04 712.639V712.639Z" fill="#2F2E41"/>
<path d="M1038.38 724.012L1027.11 718.112L1011.56 720.526L1008.34 734.741L1016.35 734.433L1018.59 729.21V734.347L1022.29 734.204L1024.43 725.89L1025.77 734.741L1038.92 734.473L1038.38 724.012Z" fill="#2F2E41"/>
<defs>
<linearGradient id="paint0_linear" x1="763" y1="0" x2="763" y2="1043" gradientUnits="userSpaceOnUse">
<stop stop-color="#FF914D" stop-opacity="0.91"/>
<stop offset="0.987549" stop-color="#FF914D" stop-opacity="0.649433"/>
<stop offset="0.987649" stop-color="#FF914D" stop-opacity="0"/>
<stop offset="0.987749" stop-color="#FF914D" stop-opacity="0.181406"/>
</linearGradient>
</defs>
</svg>
