<svg width="1526" height="1043" viewBox="0 0 1526 1043" fill="none" xmlns="http://www.w3.org/2000/svg">
<rect width="1526" height="1043" fill="url(#paint0_linear)" fill-opacity="0.85"/>
<g clip-path="url(#clip0)">
<path d="M549 1043C520.712 1038.86 493.506 1035.28 467.384 1032.28L477.714 1015.57C474.232 1014.54 458.931 1024.07 458.931 1024.07L472.49 975.471C454.977 977.158 446.065 1026.8 446.065 1026.8L426.501 1009.91L435.971 1028.84C356.022 1020.59 286.975 1017.35 228.898 1016.97L237.739 1002.67C234.257 1001.64 218.957 1011.17 218.957 1011.17L232.516 962.57C215.002 964.257 206.091 1013.9 206.091 1013.9L186.526 997.013L196.557 1017.06C147.869 1017.65 108.164 1020.25 77.5175 1023.28C86.4607 1000.97 116.833 979.854 116.833 979.854C93.6395 985.522 81.472 995.144 75.1136 1004.14C74.6276 976.537 77.8972 925.385 102.189 868.849C102.189 868.849 54.2374 955.97 60.3458 1014.63L61.076 1025.04C20.4335 1029.72 -1.52588e-05 1034.7 -1.52588e-05 1034.7L549 1043Z" fill="#3F3D56"/>
<path d="M291.923 663.821V1015.87C291.918 1020.06 290.25 1024.08 287.284 1027.05C284.317 1030.01 280.296 1031.68 276.102 1031.68H133.19C131.112 1031.68 129.054 1031.28 127.134 1030.48C125.213 1029.69 123.468 1028.53 121.999 1027.06C120.529 1025.59 119.364 1023.84 118.569 1021.92C117.775 1020 117.367 1017.95 117.37 1015.87V663.821C117.369 661.743 117.778 659.686 118.573 657.766C119.368 655.847 120.534 654.103 122.003 652.633C123.472 651.164 125.216 649.999 127.135 649.204C129.055 648.409 131.112 648 133.19 648H154.576V650.743C154.576 654.198 155.948 657.511 158.39 659.954C160.832 662.398 164.145 663.771 167.599 663.772H240.286C243.067 663.778 245.775 662.887 248.009 661.23C248.46 660.902 248.888 660.543 249.29 660.155C250.563 658.94 251.575 657.479 252.266 655.861C252.957 654.243 253.312 652.502 253.309 650.743V648H276.102C278.18 647.999 280.238 648.408 282.157 649.203C284.077 649.998 285.821 651.163 287.29 652.632C288.759 654.102 289.925 655.846 290.72 657.766C291.514 659.686 291.923 661.743 291.923 663.821Z" fill="#3F3D56"/>
<path d="M157.183 710.458C159.283 710.458 160.985 708.756 160.985 706.657C160.985 704.557 159.283 702.855 157.183 702.855C155.084 702.855 153.382 704.557 153.382 706.657C153.382 708.756 155.084 710.458 157.183 710.458Z" fill="#F2F2F2"/>
<path d="M249.29 660.155C248.888 660.543 248.46 660.902 248.009 661.23C252.665 669.424 258.972 676.561 266.532 682.189C274.091 687.816 282.738 691.811 291.922 693.921V692.226C282.986 690.118 274.583 686.179 267.245 680.659C259.907 675.139 253.794 668.157 249.29 660.155Z" fill="#FF914D"/>
<path d="M216.808 663.772H215.027C221.351 679.841 231.781 693.968 245.275 704.743C258.768 715.517 274.854 722.561 291.922 725.171V723.488C275.298 720.906 259.631 714.043 246.462 703.573C233.292 693.103 223.073 679.387 216.808 663.772Z" fill="#FF914D"/>
<path d="M183.995 663.772H182.279C196.633 713.598 239.944 750.687 291.922 756.71V755.054C240.845 749.058 198.278 712.674 183.995 663.772Z" fill="#FF914D"/>
<path d="M144.692 734.802H143.702V733.812H143.51V734.802H142.52V734.995H143.51V735.985H143.702V734.995H144.692V734.802Z" fill="#F2F2F2"/>
<path d="M211.491 685.378H210.502V684.389H210.309V685.378H209.319V685.572H210.309V686.561H210.502V685.572H211.491V685.378Z" fill="#F2F2F2"/>
<path d="M154.467 773.906H153.478V772.917H153.285V773.906H152.295V774.1H153.285V775.089H153.478V774.1H154.467V773.906Z" fill="#F2F2F2"/>
<path d="M200.087 745.121H199.097V744.132H198.904V745.121H197.914V745.314H198.904V746.304H199.097V745.314H200.087V745.121Z" fill="#F2F2F2"/>
<path d="M265.257 763.044H264.267V762.054H264.074V763.044H263.084V763.237H264.074V764.227H264.267V763.237H265.257V763.044Z" fill="#F2F2F2"/>
<path d="M253.852 718.062C255.052 718.062 256.025 717.089 256.025 715.89C256.025 714.69 255.052 713.717 253.852 713.717C252.653 713.717 251.68 714.69 251.68 715.89C251.68 717.089 252.653 718.062 253.852 718.062Z" fill="#FF6584"/>
<path d="M176.028 766.834L174.795 767.024C175.181 769.49 175.485 772.01 175.708 774.503L176.951 774.394C176.729 771.869 176.419 769.327 176.028 766.834Z" fill="#E6E6E6"/>
<path d="M172.656 751.985L171.461 752.349C172.183 754.739 172.829 757.188 173.378 759.627L174.6 759.35C174.04 756.884 173.383 754.407 172.656 751.985Z" fill="#E6E6E6"/>
<path d="M167.274 737.745L166.139 738.266C167.181 740.542 168.159 742.877 169.044 745.212L170.212 744.772C169.316 742.41 168.333 740.042 167.274 737.745Z" fill="#E6E6E6"/>
<path d="M159.996 724.395L158.943 725.063C160.284 727.17 161.571 729.353 162.766 731.542L163.863 730.945C162.657 728.729 161.354 726.524 159.996 724.395Z" fill="#E6E6E6"/>
<path d="M150.949 712.158L149.998 712.968C151.617 714.869 153.191 716.856 154.68 718.866L155.679 718.122C154.18 716.091 152.589 714.081 150.949 712.158Z" fill="#E6E6E6"/>
<path d="M140.315 701.263L139.484 702.192C141.352 703.86 143.182 705.614 144.926 707.401L145.822 706.526C144.057 704.718 142.205 702.947 140.315 701.263Z" fill="#E6E6E6"/>
<path d="M128.302 691.911L127.601 692.943C129.676 694.339 131.729 695.827 133.7 697.364L134.471 696.381C132.473 694.827 130.398 693.323 128.302 691.911Z" fill="#E6E6E6"/>
<path d="M117.37 685.415V686.827C118.668 687.506 119.955 688.218 121.215 688.946L121.839 687.865C120.373 687.018 118.883 686.201 117.37 685.415Z" fill="#E6E6E6"/>
<path d="M175.746 884.149C175.948 882.934 176.134 881.694 176.297 880.463L177.535 880.628C177.37 881.872 177.182 883.126 176.978 884.354L175.746 884.149Z" fill="#E6E6E6"/>
<path d="M172.265 898.801L173.459 899.173C174.207 896.76 174.885 894.287 175.472 891.824L174.256 891.536C173.674 893.973 173.009 896.415 172.265 898.801Z" fill="#E6E6E6"/>
<path d="M166.812 912.831L167.945 913.362C169.022 911.077 170.031 908.722 170.945 906.365L169.78 905.91C168.876 908.242 167.879 910.571 166.812 912.831Z" fill="#E6E6E6"/>
<path d="M159.474 925.993L160.521 926.673C161.902 924.555 163.227 922.359 164.461 920.15L163.372 919.539C162.155 921.724 160.84 923.894 159.474 925.993Z" fill="#E6E6E6"/>
<path d="M150.395 938.017L151.342 938.837C153.003 936.92 154.614 934.927 156.141 932.911L155.141 932.163C153.635 934.156 152.041 936.125 150.395 938.017Z" fill="#E6E6E6"/>
<path d="M139.765 948.686L140.587 949.625C142.497 947.959 144.364 946.201 146.148 944.415L145.265 943.531C143.501 945.298 141.65 947.032 139.765 948.686Z" fill="#E6E6E6"/>
<path d="M127.788 957.805L128.478 958.85C130.587 957.458 132.681 955.974 134.69 954.444L133.935 953.447C131.945 954.964 129.876 956.431 127.788 957.805Z" fill="#E6E6E6"/>
<path d="M121.98 962.818C120.471 963.67 118.928 964.496 117.37 965.278V963.877C118.716 963.192 120.052 962.47 121.361 961.737L121.98 962.818Z" fill="#E6E6E6"/>
<path d="M176.112 782.207L177.361 782.184C177.384 783.445 177.385 784.712 177.366 785.952L176.118 785.932C176.137 784.707 176.135 783.454 176.112 782.207Z" fill="#E6E6E6"/>
<path d="M122.855 811.821H250.594C260.1 811.821 269.217 815.598 275.939 822.32C282.661 829.043 286.437 838.16 286.437 847.667V852.412H158.698C149.192 852.412 140.075 848.635 133.353 841.913C126.631 835.19 122.855 826.073 122.855 816.566V811.821Z" fill="white"/>
<path d="M207.63 1031.18C207.506 1030.98 204.567 1026.07 203.548 1015.88C202.613 1006.53 203.214 990.773 211.386 968.793C226.867 927.151 207.818 893.553 207.624 893.218L208.564 892.673C208.613 892.758 213.528 901.324 216.432 914.965C220.269 933.049 218.872 951.852 212.404 969.171C196.95 1010.74 208.439 1030.42 208.557 1030.61L207.63 1031.18Z" fill="#F2F2F2"/>
<path d="M201.577 890.773C205.476 890.773 208.637 887.612 208.637 883.713C208.637 879.813 205.476 876.652 201.577 876.652C197.677 876.652 194.517 879.813 194.517 883.713C194.517 887.612 197.677 890.773 201.577 890.773Z" fill="#FF914D"/>
<path d="M223.843 916.843C227.742 916.843 230.903 913.682 230.903 909.782C230.903 905.883 227.742 902.722 223.843 902.722C219.944 902.722 216.783 905.883 216.783 909.782C216.783 913.682 219.944 916.843 223.843 916.843Z" fill="#F2F2F2"/>
<path d="M208.637 934.222C212.536 934.222 215.697 931.061 215.697 927.162C215.697 923.263 212.536 920.101 208.637 920.101C204.738 920.101 201.577 923.263 201.577 927.162C201.577 931.061 204.738 934.222 208.637 934.222Z" fill="#FF914D"/>
<path d="M227.102 948.887C231.001 948.887 234.162 945.725 234.162 941.826C234.162 937.927 231.001 934.766 227.102 934.766C223.202 934.766 220.042 937.927 220.042 941.826C220.042 945.725 223.202 948.887 227.102 948.887Z" fill="#FF914D"/>
<path d="M203.206 971.697C207.105 971.697 210.266 968.536 210.266 964.637C210.266 960.738 207.105 957.576 203.206 957.576C199.307 957.576 196.146 960.738 196.146 964.637C196.146 968.536 199.307 971.697 203.206 971.697Z" fill="#F2F2F2"/>
<path d="M211.895 1031.44C211.895 1031.44 204.835 1014.06 226.015 1001.03L211.895 1031.44Z" fill="#F2F2F2"/>
<path d="M203.212 1031.12C203.212 1031.12 199.999 1012.64 175.13 1012.8L203.212 1031.12Z" fill="#F2F2F2"/>
<path opacity="0.2" d="M175.105 875.566C199.1 875.566 218.552 856.113 218.552 832.116C218.552 808.12 199.1 788.667 175.105 788.667C151.11 788.667 131.658 808.12 131.658 832.116C131.658 856.113 151.11 875.566 175.105 875.566Z" fill="#FF914D"/>
<path opacity="0.2" d="M175.105 862.715C192.003 862.715 205.701 849.015 205.701 832.116C205.701 815.218 192.003 801.518 175.105 801.518C158.207 801.518 144.509 815.218 144.509 832.116C144.509 849.015 158.207 862.715 175.105 862.715Z" fill="#FF914D"/>
<path d="M175.105 852.311C186.258 852.311 195.299 843.27 195.299 832.117C195.299 820.963 186.258 811.922 175.105 811.922C163.952 811.922 154.911 820.963 154.911 832.117C154.911 843.27 163.952 852.311 175.105 852.311Z" fill="#FF914D"/>
<path d="M178.777 827.761C178.777 827.141 178.62 826.532 178.321 825.989C178.022 825.446 177.591 824.988 177.067 824.656C176.543 824.325 175.944 824.132 175.326 824.095C174.707 824.057 174.09 824.177 173.53 824.443C172.97 824.709 172.487 825.112 172.125 825.615C171.763 826.118 171.534 826.704 171.46 827.32C171.386 827.935 171.468 828.559 171.7 829.133C171.932 829.708 172.305 830.215 172.786 830.606L171.433 840.072H178.777L177.424 830.606C177.847 830.262 178.188 829.828 178.422 829.336C178.656 828.844 178.777 828.306 178.777 827.761Z" fill="white"/>
<path d="M378.045 676.948C378.045 676.948 365.934 666.089 349.645 686.555C333.357 707.021 307.88 717.045 302.033 724.981C302.033 724.981 326.257 714.957 334.61 710.78C342.963 706.603 342.545 707.438 342.545 707.438C342.545 707.438 331.269 715.374 329.18 723.31C327.092 731.246 328.763 737.929 325.004 745.864C321.245 753.8 396.84 751.294 396.84 751.294C396.84 751.294 404.357 738.346 402.269 724.981C400.181 711.615 401.434 678.619 378.045 676.948Z" fill="#2F2E41"/>
<path d="M355.137 711.111C355.137 711.111 357.77 729.548 346.483 733.687C335.196 737.826 339.334 743.47 339.334 743.47L356.265 751.748L374.325 746.104L380.345 737.074C380.345 737.074 370.563 734.816 373.196 728.043C375.83 721.27 376.583 719.013 376.583 719.013L355.137 711.111Z" fill="#FFB9B9"/>
<path opacity="0.1" d="M355.137 711.111C355.137 711.111 357.77 729.548 346.483 733.687C335.196 737.826 339.334 743.47 339.334 743.47L356.265 751.748L374.325 746.104L380.345 737.074C380.345 737.074 370.563 734.816 373.196 728.043C375.83 721.27 376.583 719.013 376.583 719.013L355.137 711.111Z" fill="black"/>
<path d="M402.543 763.789C402.543 763.789 399.91 798.405 400.662 799.91C401.415 801.415 400.662 853.716 400.662 853.716C400.662 853.716 405.929 881.936 399.157 883.441C392.385 884.946 393.89 851.835 393.89 851.835L387.117 808.188L387.87 764.917L402.543 763.789Z" fill="#FFB9B9"/>
<path opacity="0.1" d="M402.543 763.789C402.543 763.789 399.91 798.405 400.662 799.91C401.415 801.415 400.662 853.716 400.662 853.716C400.662 853.716 405.929 881.936 399.157 883.441C392.385 884.946 393.89 851.835 393.89 851.835L387.117 808.188L387.87 764.917L402.543 763.789Z" fill="black"/>
<path d="M329.176 868.014C329.176 868.014 316.76 915.048 317.136 938C317.512 960.952 322.403 992.935 322.403 992.935C322.403 992.935 323.156 1006.86 322.027 1008.36C320.898 1009.87 327.671 1016.26 327.671 1016.26L334.819 1012.12L337.453 1009.11V1006.48C337.453 1006.48 333.314 993.687 336.701 983.528C340.087 973.369 341.968 947.783 338.582 939.881L361.909 870.648L329.176 868.014Z" fill="#FFB9B9"/>
<path d="M328.423 1010.24C328.423 1010.24 323.908 1004.6 320.898 1006.48C317.888 1008.36 312.997 1021.15 312.997 1021.15C312.997 1021.15 296.066 1037.33 308.106 1038.09C320.146 1038.84 325.413 1034.7 326.918 1031.69C328.423 1028.68 342.344 1020.78 342.344 1020.78C342.344 1020.78 340.839 1006.48 338.582 1006.1C336.324 1005.73 332.938 1011.75 332.938 1011.75L328.423 1010.24Z" fill="#2F2E41"/>
<path d="M370.186 871.024V917.681C370.23 923.343 370.607 928.996 371.315 934.613C372.444 942.891 364.919 1004.6 364.919 1004.6L365.671 1015.51L375.078 1014.76L376.206 1005.35L389.751 963.962C389.751 963.962 394.266 938.752 392.009 929.346C389.751 919.939 403.672 859.736 403.672 859.736L370.186 871.024Z" fill="#FFB9B9"/>
<path d="M362.661 1012.88L365.448 1012.27C365.448 1012.27 367.553 1007.61 370.186 1008.74C372.04 1009.59 373.796 1010.64 375.423 1011.88L376.583 1014.01C376.583 1014.01 379.216 1019.65 382.602 1023.41C385.989 1027.17 389.751 1035.45 384.107 1036.21C378.464 1036.96 370.939 1037.33 368.681 1035.45C366.424 1033.57 367.929 1030.56 365.671 1029.81C363.414 1029.06 361.533 1026.8 361.909 1026.05C362.285 1025.29 362.661 1012.88 362.661 1012.88Z" fill="#2F2E41"/>
<path d="M370.186 724.071C379.421 724.071 386.908 716.584 386.908 707.349C386.908 698.113 379.421 690.626 370.186 690.626C360.951 690.626 353.465 698.113 353.465 707.349C353.465 716.584 360.951 724.071 370.186 724.071Z" fill="#FFB9B9"/>
<path d="M338.582 736.697L343.552 734.962C343.552 734.962 341.592 738.202 352.127 740.084C362.661 741.965 373.572 742.631 378.463 736.466C378.463 736.466 380.345 735.569 382.979 738.202C385.612 740.836 387.117 740.084 387.117 740.084L385.236 749.867L381.474 767.928L376.583 781.473L362.661 778.463L347.612 767.551L341.968 752.877V739.331L338.582 736.697Z" fill="#FF914D"/>
<path d="M384.484 741.965L388.246 739.331C388.246 739.331 401.038 741.589 401.791 747.609L392.009 766.422C394.004 771.657 393.869 777.465 391.632 782.602C387.87 791.256 388.246 793.137 388.246 793.137L385.612 804.425L337.829 808.188C337.829 808.188 335.948 803.673 335.196 802.92C334.443 802.168 334.443 799.534 335.196 799.534C335.948 799.534 335.196 798.405 334.443 797.276C333.691 796.147 333.314 795.771 334.443 794.266C335.572 792.761 332.562 779.215 332.562 779.215V764.541L319.77 747.609C319.77 747.609 324.285 740.836 326.542 740.084C328.8 739.331 339.538 736.363 339.538 736.363L341.968 739.942L345.354 767.175L350.245 783.731L370.84 780.231L378.84 766.799L384.107 750.995L384.484 741.965Z" fill="#FF914D"/>
<path d="M398.781 745.352L401.791 747.609C401.791 747.609 404.425 768.68 403.672 770.185C402.92 771.69 389.751 773.195 389.375 772.443C388.999 771.69 398.781 745.352 398.781 745.352Z" fill="#FF914D"/>
<path d="M336.701 734.816L340.463 759.65C340.463 759.65 337.077 796.524 337.829 804.049L338.582 806.307C338.582 806.307 337.077 805.554 336.701 807.059C336.324 808.564 336.701 813.456 336.701 813.456C336.701 813.456 334.443 815.713 333.691 828.13C332.938 840.547 323.908 870.272 327.294 871.401C330.681 872.529 350.998 878.173 361.909 877.045C372.82 875.916 411.949 862.747 411.573 859.36C411.197 855.974 392.385 808.188 392.385 808.188C392.385 808.188 388.999 802.544 388.999 801.791C388.999 801.039 393.514 798.029 392.385 795.019C391.256 792.009 385.236 760.402 385.236 760.402L389.375 737.826L383.731 736.321L379.592 758.145C379.592 758.145 363.414 766.046 346.483 758.897L342.721 733.311L336.701 734.816Z" fill="#2F2E41"/>
<path d="M354.803 695.347C354.803 695.347 382.645 714.537 390.17 705.883C397.695 697.229 377.001 689.703 377.001 689.703L359.694 687.822L354.803 695.347Z" fill="#2F2E41"/>
<path d="M311.543 899.486C314.409 901.619 317.954 902.634 321.515 902.34C325.075 902.046 328.406 900.464 330.884 897.89C333.361 895.316 334.815 891.926 334.972 888.357C335.129 884.788 333.979 881.284 331.738 878.501C329.497 875.719 326.318 873.85 322.797 873.244C319.276 872.639 315.655 873.338 312.613 875.211C309.571 877.084 307.316 880.002 306.271 883.419C305.227 886.836 305.464 890.516 306.939 893.77L268.539 925.744L263.426 919.676L261.129 921.212L258.572 918.178L260.673 916.408L258.117 913.374L254.849 916.127L256.422 917.994L252.921 920.944L251.348 919.077L246.214 923.404L248.573 926.204L250.44 924.631L252.997 927.665L250.663 929.632L255.383 935.234L249.781 939.954L255.484 946.722L311.543 899.486ZM321.131 878.037C323.045 878.2 324.867 878.928 326.367 880.127C327.868 881.326 328.979 882.943 329.56 884.774C330.141 886.605 330.167 888.567 329.633 890.412C329.099 892.257 328.03 893.903 326.562 895.14C325.093 896.378 323.29 897.152 321.381 897.365C319.472 897.578 317.543 897.22 315.838 896.337C314.132 895.453 312.727 894.084 311.8 892.402C310.873 890.72 310.465 888.8 310.628 886.887C310.848 884.32 312.077 881.946 314.047 880.286C316.017 878.627 318.565 877.818 321.131 878.037V878.037Z" fill="#FF914D"/>
<path d="M317.136 768.304C317.136 768.304 319.77 802.92 319.017 804.425C318.265 805.93 319.017 858.231 319.017 858.231C319.017 858.231 313.75 886.451 320.522 887.956C327.295 889.461 325.79 856.35 325.79 856.35L332.562 812.703L331.809 769.433L317.136 768.304Z" fill="#FFB9B9"/>
<path d="M322.78 746.48L319.77 747.609C319.77 747.609 314.126 771.314 315.631 771.314C317.136 771.314 335.196 773.571 335.196 772.819C335.196 772.066 331.809 753.629 331.809 753.629L322.78 746.48Z" fill="#FF914D"/>
</g>
<defs>
<linearGradient id="paint0_linear" x1="763" y1="0" x2="763" y2="1043" gradientUnits="userSpaceOnUse">
<stop stop-color="#132D7D" stop-opacity="0.91"/>
<stop offset="0.0001" stop-color="#132D7D" stop-opacity="0.649433"/>
<stop offset="0.987749" stop-color="#132D7D" stop-opacity="0.181406"/>
<stop offset="1" stop-color="#132D7D" stop-opacity="0"/>
</linearGradient>
<clipPath id="clip0">
<rect y="648" width="549" height="395" fill="white"/>
</clipPath>
</defs>
</svg>
